<mxfile host="app.diagrams.net" modified="2023-06-19T16:57:04.366Z" agent="Mozilla/5.0 (Windows NT 10.0; Win64; x64) AppleWebKit/537.36 (KHTML, like Gecko) Chrome/114.0.0.0 Safari/537.36" etag="g6umhwCSykC5GW5ALj48" version="21.4.0" type="github">
  <diagram name="Page-1" id="qP7jsXchIeOkwYdLM_5w">
    <mxGraphModel dx="1914" dy="988" grid="1" gridSize="10" guides="1" tooltips="1" connect="1" arrows="1" fold="1" page="1" pageScale="1" pageWidth="850" pageHeight="1100" math="0" shadow="0">
      <root>
        <mxCell id="0" />
        <mxCell id="1" parent="0" />
        <mxCell id="9M9OLu-yPoNllCj8_yKR-1" value="Contract timeline" style="shape=table;childLayout=tableLayout;startSize=40;collapsible=0;recursiveResize=0;expand=0;fillColor=none;fontStyle=1" vertex="1" parent="1">
          <mxGeometry x="40" y="20" width="1360" height="670" as="geometry" />
        </mxCell>
        <mxCell id="9M9OLu-yPoNllCj8_yKR-3" value="Ownership" style="shape=tableRow;horizontal=0;swimlaneHead=0;swimlaneBody=0;top=0;left=0;bottom=0;right=0;fillColor=none;points=[[0,0.5],[1,0.5]];portConstraint=eastwest;startSize=40;collapsible=0;recursiveResize=0;expand=0;fontStyle=1;" vertex="1" parent="9M9OLu-yPoNllCj8_yKR-1">
          <mxGeometry y="40" width="1360" height="436" as="geometry" />
        </mxCell>
        <mxCell id="9M9OLu-yPoNllCj8_yKR-4" value="Deploment" style="swimlane;swimlaneHead=0;swimlaneBody=0;connectable=0;fillColor=none;startSize=40;collapsible=0;recursiveResize=0;expand=0;fontStyle=1;" vertex="1" parent="9M9OLu-yPoNllCj8_yKR-3">
          <mxGeometry x="40" width="273" height="436" as="geometry">
            <mxRectangle width="273" height="436" as="alternateBounds" />
          </mxGeometry>
        </mxCell>
        <mxCell id="9M9OLu-yPoNllCj8_yKR-36" value="" style="edgeStyle=orthogonalEdgeStyle;rounded=0;orthogonalLoop=1;jettySize=auto;html=1;" edge="1" parent="9M9OLu-yPoNllCj8_yKR-4" source="9M9OLu-yPoNllCj8_yKR-34" target="9M9OLu-yPoNllCj8_yKR-35">
          <mxGeometry relative="1" as="geometry" />
        </mxCell>
        <mxCell id="9M9OLu-yPoNllCj8_yKR-34" value="Deploy" style="rounded=1;whiteSpace=wrap;html=1;" vertex="1" parent="9M9OLu-yPoNllCj8_yKR-4">
          <mxGeometry x="76.5" y="70" width="120" height="60" as="geometry" />
        </mxCell>
        <mxCell id="9M9OLu-yPoNllCj8_yKR-42" value="" style="edgeStyle=orthogonalEdgeStyle;rounded=0;orthogonalLoop=1;jettySize=auto;html=1;" edge="1" parent="9M9OLu-yPoNllCj8_yKR-4" source="9M9OLu-yPoNllCj8_yKR-35" target="9M9OLu-yPoNllCj8_yKR-41">
          <mxGeometry relative="1" as="geometry" />
        </mxCell>
        <mxCell id="9M9OLu-yPoNllCj8_yKR-35" value="Ownership&lt;br&gt;deployer address" style="rounded=1;whiteSpace=wrap;html=1;" vertex="1" parent="9M9OLu-yPoNllCj8_yKR-4">
          <mxGeometry x="76.5" y="150" width="120" height="60" as="geometry" />
        </mxCell>
        <mxCell id="9M9OLu-yPoNllCj8_yKR-44" value="" style="edgeStyle=orthogonalEdgeStyle;rounded=0;orthogonalLoop=1;jettySize=auto;html=1;" edge="1" parent="9M9OLu-yPoNllCj8_yKR-4" source="9M9OLu-yPoNllCj8_yKR-41" target="9M9OLu-yPoNllCj8_yKR-43">
          <mxGeometry relative="1" as="geometry" />
        </mxCell>
        <mxCell id="9M9OLu-yPoNllCj8_yKR-41" value="Transfer&lt;br&gt;OwnerShip" style="rounded=1;whiteSpace=wrap;html=1;" vertex="1" parent="9M9OLu-yPoNllCj8_yKR-4">
          <mxGeometry x="76.5" y="230" width="120" height="60" as="geometry" />
        </mxCell>
        <mxCell id="9M9OLu-yPoNllCj8_yKR-43" value="Pull Back funds" style="rounded=1;whiteSpace=wrap;html=1;" vertex="1" parent="9M9OLu-yPoNllCj8_yKR-4">
          <mxGeometry x="76.5" y="310" width="120" height="60" as="geometry" />
        </mxCell>
        <mxCell id="9M9OLu-yPoNllCj8_yKR-8" value="Ownership transfer Event" style="swimlane;swimlaneHead=0;swimlaneBody=0;connectable=0;fillColor=none;startSize=40;collapsible=0;recursiveResize=0;expand=0;fontStyle=1;" vertex="1" parent="9M9OLu-yPoNllCj8_yKR-3">
          <mxGeometry x="313" width="774" height="436" as="geometry">
            <mxRectangle width="774" height="436" as="alternateBounds" />
          </mxGeometry>
        </mxCell>
        <mxCell id="9M9OLu-yPoNllCj8_yKR-49" value="" style="edgeStyle=orthogonalEdgeStyle;rounded=0;orthogonalLoop=1;jettySize=auto;html=1;" edge="1" parent="9M9OLu-yPoNllCj8_yKR-8" source="9M9OLu-yPoNllCj8_yKR-46" target="9M9OLu-yPoNllCj8_yKR-48">
          <mxGeometry relative="1" as="geometry" />
        </mxCell>
        <mxCell id="9M9OLu-yPoNllCj8_yKR-63" value="" style="edgeStyle=orthogonalEdgeStyle;rounded=0;orthogonalLoop=1;jettySize=auto;html=1;" edge="1" parent="9M9OLu-yPoNllCj8_yKR-8" source="9M9OLu-yPoNllCj8_yKR-46" target="9M9OLu-yPoNllCj8_yKR-62">
          <mxGeometry relative="1" as="geometry" />
        </mxCell>
        <mxCell id="9M9OLu-yPoNllCj8_yKR-46" value="Transfer&lt;br&gt;OwnerShip" style="rounded=1;whiteSpace=wrap;html=1;" vertex="1" parent="9M9OLu-yPoNllCj8_yKR-8">
          <mxGeometry x="77" y="230" width="120" height="60" as="geometry" />
        </mxCell>
        <mxCell id="9M9OLu-yPoNllCj8_yKR-59" value="" style="edgeStyle=orthogonalEdgeStyle;rounded=0;orthogonalLoop=1;jettySize=auto;html=1;" edge="1" parent="9M9OLu-yPoNllCj8_yKR-8" source="9M9OLu-yPoNllCj8_yKR-48" target="9M9OLu-yPoNllCj8_yKR-58">
          <mxGeometry relative="1" as="geometry" />
        </mxCell>
        <mxCell id="9M9OLu-yPoNllCj8_yKR-48" value="Ownership&lt;br&gt;to Hacker address" style="rounded=1;whiteSpace=wrap;html=1;" vertex="1" parent="9M9OLu-yPoNllCj8_yKR-8">
          <mxGeometry x="316" y="230" width="120" height="60" as="geometry" />
        </mxCell>
        <mxCell id="9M9OLu-yPoNllCj8_yKR-61" value="" style="edgeStyle=orthogonalEdgeStyle;rounded=0;orthogonalLoop=1;jettySize=auto;html=1;" edge="1" parent="9M9OLu-yPoNllCj8_yKR-8" source="9M9OLu-yPoNllCj8_yKR-58" target="9M9OLu-yPoNllCj8_yKR-60">
          <mxGeometry relative="1" as="geometry" />
        </mxCell>
        <mxCell id="9M9OLu-yPoNllCj8_yKR-58" value="Pull Back funds" style="rounded=1;whiteSpace=wrap;html=1;" vertex="1" parent="9M9OLu-yPoNllCj8_yKR-8">
          <mxGeometry x="316" y="310" width="120" height="60" as="geometry" />
        </mxCell>
        <mxCell id="9M9OLu-yPoNllCj8_yKR-60" value="Reaming&amp;nbsp;&lt;br&gt;balance&lt;br&gt;4.3M" style="rounded=1;whiteSpace=wrap;html=1;" vertex="1" parent="9M9OLu-yPoNllCj8_yKR-8">
          <mxGeometry x="516" y="310" width="120" height="60" as="geometry" />
        </mxCell>
        <mxCell id="9M9OLu-yPoNllCj8_yKR-62" value="Reaming&amp;nbsp;&lt;br&gt;balance&lt;br&gt;7.2M" style="rounded=1;whiteSpace=wrap;html=1;" vertex="1" parent="9M9OLu-yPoNllCj8_yKR-8">
          <mxGeometry x="77" y="100" width="120" height="60" as="geometry" />
        </mxCell>
        <mxCell id="9M9OLu-yPoNllCj8_yKR-11" value="Funds Released" style="swimlane;swimlaneHead=0;swimlaneBody=0;connectable=0;fillColor=none;startSize=40;collapsible=0;recursiveResize=0;expand=0;fontStyle=1;" vertex="1" parent="9M9OLu-yPoNllCj8_yKR-3">
          <mxGeometry x="1087" width="273" height="436" as="geometry">
            <mxRectangle width="273" height="436" as="alternateBounds" />
          </mxGeometry>
        </mxCell>
        <mxCell id="9M9OLu-yPoNllCj8_yKR-75" value="" style="edgeStyle=orthogonalEdgeStyle;rounded=0;orthogonalLoop=1;jettySize=auto;html=1;" edge="1" parent="9M9OLu-yPoNllCj8_yKR-11" source="9M9OLu-yPoNllCj8_yKR-73" target="9M9OLu-yPoNllCj8_yKR-74">
          <mxGeometry relative="1" as="geometry" />
        </mxCell>
        <mxCell id="9M9OLu-yPoNllCj8_yKR-73" value="Pending investors payment&lt;br&gt;2.1M" style="rounded=1;whiteSpace=wrap;html=1;" vertex="1" parent="9M9OLu-yPoNllCj8_yKR-11">
          <mxGeometry x="73" y="100" width="120" height="60" as="geometry" />
        </mxCell>
        <mxCell id="9M9OLu-yPoNllCj8_yKR-74" value="External wallet" style="rounded=1;whiteSpace=wrap;html=1;" vertex="1" parent="9M9OLu-yPoNllCj8_yKR-11">
          <mxGeometry x="73" y="220" width="120" height="60" as="geometry" />
        </mxCell>
        <mxCell id="9M9OLu-yPoNllCj8_yKR-83" value="pending&amp;nbsp;&lt;br&gt;balance&lt;br&gt;2.1M" style="rounded=1;whiteSpace=wrap;html=1;" vertex="1" parent="9M9OLu-yPoNllCj8_yKR-11">
          <mxGeometry x="73" y="320" width="120" height="60" as="geometry" />
        </mxCell>
        <mxCell id="9M9OLu-yPoNllCj8_yKR-84" value="" style="edgeStyle=orthogonalEdgeStyle;rounded=0;orthogonalLoop=1;jettySize=auto;html=1;" edge="1" parent="9M9OLu-yPoNllCj8_yKR-11" source="9M9OLu-yPoNllCj8_yKR-74" target="9M9OLu-yPoNllCj8_yKR-83">
          <mxGeometry relative="1" as="geometry">
            <mxPoint x="1260" y="340" as="sourcePoint" />
            <mxPoint x="1260" y="550" as="targetPoint" />
          </mxGeometry>
        </mxCell>
        <mxCell id="9M9OLu-yPoNllCj8_yKR-47" value="" style="edgeStyle=orthogonalEdgeStyle;rounded=0;orthogonalLoop=1;jettySize=auto;html=1;" edge="1" parent="9M9OLu-yPoNllCj8_yKR-3" source="9M9OLu-yPoNllCj8_yKR-41" target="9M9OLu-yPoNllCj8_yKR-46">
          <mxGeometry relative="1" as="geometry" />
        </mxCell>
        <mxCell id="9M9OLu-yPoNllCj8_yKR-15" value="investors" style="shape=tableRow;horizontal=0;swimlaneHead=0;swimlaneBody=0;top=0;left=0;bottom=0;right=0;fillColor=none;points=[[0,0.5],[1,0.5]];portConstraint=eastwest;startSize=40;collapsible=0;recursiveResize=0;expand=0;fontStyle=1;" vertex="1" parent="9M9OLu-yPoNllCj8_yKR-1">
          <mxGeometry y="476" width="1360" height="194" as="geometry" />
        </mxCell>
        <mxCell id="9M9OLu-yPoNllCj8_yKR-16" value="" style="swimlane;swimlaneHead=0;swimlaneBody=0;connectable=0;fillColor=none;startSize=0;collapsible=0;recursiveResize=0;expand=0;fontStyle=1;" vertex="1" parent="9M9OLu-yPoNllCj8_yKR-15">
          <mxGeometry x="40" width="273" height="194" as="geometry">
            <mxRectangle width="273" height="194" as="alternateBounds" />
          </mxGeometry>
        </mxCell>
        <mxCell id="9M9OLu-yPoNllCj8_yKR-37" value="Release&lt;br&gt;Funds&amp;nbsp;&lt;br&gt;/day" style="ellipse;whiteSpace=wrap;html=1;rounded=1;" vertex="1" parent="9M9OLu-yPoNllCj8_yKR-16">
          <mxGeometry x="96.5" y="57" width="80" height="80" as="geometry" />
        </mxCell>
        <mxCell id="9M9OLu-yPoNllCj8_yKR-18" value="" style="swimlane;swimlaneHead=0;swimlaneBody=0;connectable=0;fillColor=none;startSize=0;collapsible=0;recursiveResize=0;expand=0;fontStyle=1;" vertex="1" parent="9M9OLu-yPoNllCj8_yKR-15">
          <mxGeometry x="313" width="774" height="194" as="geometry">
            <mxRectangle width="774" height="194" as="alternateBounds" />
          </mxGeometry>
        </mxCell>
        <mxCell id="9M9OLu-yPoNllCj8_yKR-67" value="" style="edgeStyle=orthogonalEdgeStyle;rounded=0;orthogonalLoop=1;jettySize=auto;html=1;" edge="1" parent="9M9OLu-yPoNllCj8_yKR-18" source="9M9OLu-yPoNllCj8_yKR-64" target="9M9OLu-yPoNllCj8_yKR-66">
          <mxGeometry relative="1" as="geometry" />
        </mxCell>
        <mxCell id="9M9OLu-yPoNllCj8_yKR-64" value="Release&lt;br&gt;Funds&amp;nbsp;&lt;br&gt;/day" style="ellipse;whiteSpace=wrap;html=1;rounded=1;" vertex="1" parent="9M9OLu-yPoNllCj8_yKR-18">
          <mxGeometry x="336" y="57" width="80" height="80" as="geometry" />
        </mxCell>
        <mxCell id="9M9OLu-yPoNllCj8_yKR-66" value="Total balance&lt;br&gt;reduced&lt;br&gt;" style="rhombus;whiteSpace=wrap;html=1;rounded=1;" vertex="1" parent="9M9OLu-yPoNllCj8_yKR-18">
          <mxGeometry x="517" y="45.5" width="114" height="103" as="geometry" />
        </mxCell>
        <mxCell id="9M9OLu-yPoNllCj8_yKR-23" value="" style="swimlane;swimlaneHead=0;swimlaneBody=0;connectable=0;fillColor=none;startSize=0;collapsible=0;recursiveResize=0;expand=0;fontStyle=1;" vertex="1" parent="9M9OLu-yPoNllCj8_yKR-15">
          <mxGeometry x="1087" width="273" height="194" as="geometry">
            <mxRectangle width="273" height="194" as="alternateBounds" />
          </mxGeometry>
        </mxCell>
        <mxCell id="9M9OLu-yPoNllCj8_yKR-76" value="Release&lt;br&gt;Funds&amp;nbsp;&lt;br&gt;/day" style="ellipse;whiteSpace=wrap;html=1;rounded=1;" vertex="1" parent="9M9OLu-yPoNllCj8_yKR-23">
          <mxGeometry x="93" y="54" width="80" height="80" as="geometry" />
        </mxCell>
        <mxCell id="9M9OLu-yPoNllCj8_yKR-45" style="edgeStyle=orthogonalEdgeStyle;rounded=0;orthogonalLoop=1;jettySize=auto;html=1;" edge="1" parent="9M9OLu-yPoNllCj8_yKR-1" source="9M9OLu-yPoNllCj8_yKR-43" target="9M9OLu-yPoNllCj8_yKR-37">
          <mxGeometry relative="1" as="geometry" />
        </mxCell>
        <mxCell id="9M9OLu-yPoNllCj8_yKR-65" value="" style="edgeStyle=orthogonalEdgeStyle;rounded=0;orthogonalLoop=1;jettySize=auto;html=1;" edge="1" parent="9M9OLu-yPoNllCj8_yKR-1" source="9M9OLu-yPoNllCj8_yKR-58" target="9M9OLu-yPoNllCj8_yKR-64">
          <mxGeometry relative="1" as="geometry" />
        </mxCell>
        <mxCell id="9M9OLu-yPoNllCj8_yKR-77" style="edgeStyle=orthogonalEdgeStyle;rounded=0;orthogonalLoop=1;jettySize=auto;html=1;" edge="1" parent="9M9OLu-yPoNllCj8_yKR-1" source="9M9OLu-yPoNllCj8_yKR-83" target="9M9OLu-yPoNllCj8_yKR-76">
          <mxGeometry relative="1" as="geometry" />
        </mxCell>
        <mxCell id="9M9OLu-yPoNllCj8_yKR-69" value="" style="rounded=0;whiteSpace=wrap;html=1;fillColor=none;" vertex="1" parent="1">
          <mxGeometry x="1400" y="20" width="490" height="670" as="geometry" />
        </mxCell>
        <mxCell id="9M9OLu-yPoNllCj8_yKR-70" value="" style="rounded=0;whiteSpace=wrap;html=1;fillColor=none;" vertex="1" parent="1">
          <mxGeometry x="1400" y="500" width="490" height="190" as="geometry" />
        </mxCell>
        <mxCell id="9M9OLu-yPoNllCj8_yKR-72" value="Funds Drainage" style="rounded=0;whiteSpace=wrap;html=1;" vertex="1" parent="1">
          <mxGeometry x="1400" y="60" width="490" height="40" as="geometry" />
        </mxCell>
        <mxCell id="9M9OLu-yPoNllCj8_yKR-86" value="" style="edgeStyle=orthogonalEdgeStyle;rounded=0;orthogonalLoop=1;jettySize=auto;html=1;" edge="1" parent="1" source="9M9OLu-yPoNllCj8_yKR-78" target="9M9OLu-yPoNllCj8_yKR-79">
          <mxGeometry relative="1" as="geometry" />
        </mxCell>
        <mxCell id="9M9OLu-yPoNllCj8_yKR-78" value="Hacker owner wallet" style="rounded=1;whiteSpace=wrap;html=1;" vertex="1" parent="1">
          <mxGeometry x="1485" y="300" width="120" height="60" as="geometry" />
        </mxCell>
        <mxCell id="9M9OLu-yPoNllCj8_yKR-87" value="" style="edgeStyle=orthogonalEdgeStyle;rounded=0;orthogonalLoop=1;jettySize=auto;html=1;" edge="1" parent="1" source="9M9OLu-yPoNllCj8_yKR-79" target="9M9OLu-yPoNllCj8_yKR-80">
          <mxGeometry relative="1" as="geometry" />
        </mxCell>
        <mxCell id="9M9OLu-yPoNllCj8_yKR-79" value="Pull Back funds" style="rounded=1;whiteSpace=wrap;html=1;" vertex="1" parent="1">
          <mxGeometry x="1485" y="380" width="120" height="60" as="geometry" />
        </mxCell>
        <mxCell id="9M9OLu-yPoNllCj8_yKR-80" value="Reaming&amp;nbsp;&lt;br&gt;balance&lt;br&gt;2.2M" style="rounded=1;whiteSpace=wrap;html=1;" vertex="1" parent="1">
          <mxGeometry x="1685" y="380" width="120" height="60" as="geometry" />
        </mxCell>
        <mxCell id="9M9OLu-yPoNllCj8_yKR-85" value="" style="edgeStyle=orthogonalEdgeStyle;rounded=0;orthogonalLoop=1;jettySize=auto;html=1;" edge="1" parent="1" source="9M9OLu-yPoNllCj8_yKR-81" target="9M9OLu-yPoNllCj8_yKR-82">
          <mxGeometry relative="1" as="geometry" />
        </mxCell>
        <mxCell id="9M9OLu-yPoNllCj8_yKR-81" value="Release&lt;br&gt;Funds&amp;nbsp;&lt;br&gt;/day" style="ellipse;whiteSpace=wrap;html=1;rounded=1;" vertex="1" parent="1">
          <mxGeometry x="1505" y="555" width="80" height="80" as="geometry" />
        </mxCell>
        <mxCell id="9M9OLu-yPoNllCj8_yKR-82" value="Total balance&lt;br&gt;reduced&lt;br&gt;to&lt;br&gt;0" style="rhombus;whiteSpace=wrap;html=1;rounded=1;" vertex="1" parent="1">
          <mxGeometry x="1670" y="522.75" width="164" height="144.5" as="geometry" />
        </mxCell>
      </root>
    </mxGraphModel>
  </diagram>
</mxfile>
